Coordinates

Units are S.I. units (second, meters, Newtons, ...)
If the header above contains a line with 'inDegrees', this indicates whether rotational values are in degrees (yes) or radians (no).

inDegrees=no
nColumns=21
nRows=30
DataType=double
version=3
OpenSimVersion=4.6-2026-03-31-d6972f9e6
endheader
time	/jointset/ground_pelvis/pelvis_tilt/value	/jointset/ground_pelvis/pelvis_list/value	/jointset/ground_pelvis/pelvis_rotation/value	/jointset/ground_pelvis/pelvis_tx/value	/jointset/ground_pelvis/pelvis_ty/value	/jointset/ground_pelvis/pelvis_tz/value	/jointset/hip_r/hip_flexion_r/value	/jointset/hip_r/hip_adduction_r/value	/jointset/hip_r/hip_rotation_r/value	/jointset/walker_knee_r/knee_angle_r/value	/jointset/patellofemoral_r/knee_angle_r_beta/value	/jointset/ankle_r/ankle_angle_r/value	/jointset/subtalar_r/subtalar_angle_r/value	/jointset/hip_l/hip_flexion_l/value	/jointset/hip_l/hip_adduction_l/value	/jointset/hip_l/hip_rotation_l/value	/jointset/walker_knee_l/knee_angle_l/value	/jointset/patellofemoral_l/knee_angle_l_beta/value	/jointset/ankle_l/ankle_angle_l/value	/jointset/subtalar_l/subtalar_angle_l/value
147.496	0.03912166535750643	-0.2340854486789316	1.360862919147865	0.8162130530442641	0.9695100112539183	-1.176718020446401	0.5063880260487427	0.1661837095734789	0.2237986677648016	0.5093059369025734	0.5093059366141333	0.07781971692666909	-0.5232850521753851	0.04508191995073092	-0.177319254750581	-0.195503355148815	1.092133681442519	1.092133680990096	-0.5730542404567994	-0.6339680913130731
147.5	0.04635520717778297	-0.2342503979296168	1.3592313427817	0.8172102102927963	0.9671601551061858	-1.175650847395009	0.5061812592226838	0.1766693084546052	0.2272322928262321	0.5349222858431177	0.5349222855598001	0.08985823138596791	-0.5372468402997982	0.05626506889689217	-0.1933168342978796	-0.1982222082000909	1.124372731240058	1.124372730670512	-0.5561900250700121	-0.6450412090895602
147.504	0.05379167086702059	-0.2347518119007191	1.357561425095818	0.8181671528011395	0.964879135337549	-1.174559455934454	0.5055366858967189	0.1871570718586862	0.2298164582840011	0.5587594017095378	0.558759401436862	0.1027209143617724	-0.5484568143378109	0.06815661481233684	-0.2095395364505657	-0.2005383934208249	1.155639637395465	1.155639636746016	-0.5381252484433924	-0.6543858537482626
147.508	0.0613231504404281	-0.2355639504134574	1.35594941573374	0.8190650354904687	0.9626888352271863	-1.173459884275588	0.5043489613437954	0.1974240951018917	0.2315363079536045	0.5805628169015026	0.5805628166448235	0.1162661680405502	-0.5569491146506549	0.08076710895577331	-0.2257777407292831	-0.2022934871313182	1.185761291205835	1.185761290514084	-0.5191263926828386	-0.6620719722149875
147.512	0.0688322165169775	-0.2366465615603774	1.354495153033723	0.8198853041338532	0.9606113112177606	-1.172368524658897	0.5025124609159622	0.2072412699582898	0.2323859727176648	0.6001206551584587	0.6001206549227533	0.1303502456253716	-0.5628028759705642	0.09409286927530204	-0.2418020618755669	-0.2033356422958165	1.214567802069987	1.214567801371544	-0.4994628806354886	-0.6682011593898162
147.516	0.07619444950888525	-0.237946096196307	1.353299547869843	0.8206102530438979	0.9586682922904485	-1.171301608478323	0.499924066525525	0.2163798189460813	0.2323682638584068	0.6172664057489671	0.6172664055385381	0.1448289133328026	-0.5661364062451119	0.1081154894233836	-0.2573686726117461	-0.2035248172460695	1.241896115602166	1.241896114928636	-0.4793985595806712	-0.6728987832447868
147.52	0.08328150110255909	-0.2393975114124587	1.35246200721752	0.8212235566853691	0.9568806764932515	-1.1702747117762	0.4964857628326073	0.2246181001538179	0.2314943286005526	0.6318801106923839	0.6318801105105925	0.1595584363326268	-0.5671014876676	0.122801597330672	-0.2722255471733044	-0.2027376489916686	1.267593339020764	1.267593338398045	-0.4591836604551876	-0.6763056779824654
147.524	0.08996459962023172	-0.2409268670635463	1.352077902337523	0.8217107534121341	0.9552680178474059	-1.169302295402062	0.4921072962165781	0.2317484816144138	0.2297831827202783	0.643888065485495	0.6438880653345784	0.1743959576085513	-0.5658778533926413	0.1381032268747528	-0.2861195101417548	-0.2008717680386395	1.291519749488922	1.29151974893593	-0.4390475490918568	-0.6785699112757835
147.528	0.09611834696881291	-0.2424548057539637	1.352236188206153	0.8220596616599279	0.9538480038570656	-1.168397293828598	0.4867090696471982	0.2375840180428015	0.2272610740658995	0.6532611796889904	0.6532611795699662	0.1891993993131018	-0.5626678559890533	0.1539590798013196	-0.2988038591088431	-0.1978493539866837	1.313551454465445	1.313551453993382	-0.419192564681663	-0.6798390819289731
147.532	0.1016245436611633	-0.2439007166568791	1.353017241604491	0.8222607117840539	0.9526359481362784	-1.16757076999361	0.4802251666390909	0.241964541534302	0.2239607486197141	0.6600121754296157	0.6600121753423354	0.2038270649012375	-0.5576914205748501	0.1702966502625857	-0.3100461081164493	-0.1936197550339075	1.333582595187153	1.333582594799382	-0.3997893768861571	-0.6802536388729958
147.536	0.1063757431482199	-0.2451871742836593	1.354490929470715	0.8223071827319091	0.9516443384659541	-1.166831653428912	0.4726061974019518	0.2447617595916958	0.2199207676300123	0.6641918462099742	0.6641918461534134	0.218137108466024	-0.5511814351357763	0.1870349339349467	-0.3196353053294478	-0.1881610796373847	1.351526944549193	1.351526944241637	-0.3809742868831471	-0.6799416714746525
147.54	0.1102783098992269	-0.2462442575383407	1.356714897531904	0.8221953400172453	0.9508824744390351	-1.166186573014516	0.4638216905449537	0.2458830719833794	0.2151849911900531	0.6658846342094675	0.6658846341821945	0.2319869972612384	-0.5433796581534485	0.2040874244604129	-0.3273884887008032	-0.1814807660070054	1.367318800041289	1.367318799803165	-0.3628486459027551	-0.6790154414316886
147.544	0.113254872363593	-0.2470134905906727	1.35973310723957	0.8219244748300514	0.9503562112564787	-1.165639788368253	0.4538619043123651	0.2452739689521829	0.2098022204780776	0.6652037858072124	0.6652037858078507	0.2452331080454276	-0.5345330231987616	0.2213652266866915	-0.3331560304494923	-0.1736151645112313	1.38091316422568	1.380913164040376	-0.3454802381099653	-0.6775696846115861
147.548	0.1152461537861276	-0.2474512645158257	1.363574700668164	0.8214968442115135	0.9500678113386946	-1.165193218441111	0.4427390532000034	0.2429189830935552	0.2038258670519756	0.6622863216980963	0.6622863217257076	0.2577306567154371	-0.5248900144735534	0.2387802256093304	-0.3368257654509599	-0.1646281572851665	1.392285278119111	1.392285277965166	-0.3289062376311929	-0.6756815095639727
147.552	0.1162121684022165	-0.2475316052847082	1.368253251156946	0.8209175157568691	0.9500159029210087	-1.164846562111866	0.4304879411129311	0.2388412068140969	0.1973135303670744	0.6572880273503138	0.6572880274047476	0.269334145801884	-0.5146968109261019	0.2562482141904724	-0.3383258219562562	-0.1546088852415677	1.401429585354314	1.401429585206639	-0.3131373063189861	-0.6734116437985571
147.556	0.1161327201755399	-0.2472480812895885	1.373766375802815	0.8201941283444963	0.950195551805499	-1.16459750255804	0.4171658920622606	0.2331003932987394	0.1903264978691735	0.6503786286398193	0.6503786287219714	0.2798983788850734	-0.5041931887265849	0.2736917412300989	-0.3376260252283584	-0.1436687512953979	1.408358175746085	1.408358175577607	-0.2981625051334865	-0.670806800630664
147.56	0.1150071459779825	-0.2466146323806817	1.380095650121533	0.8193365870598284	0.9505984546460143	-1.16444198425785	0.4028518215101863	0.2257897113836206	0.1829292690126995	0.6417372562347905	0.6417372563465827	0.289279915951101	-0.4936084758453121	0.2910423763944186	-0.334737777915419	-0.1319379269863607	1.413098748680615	1.413098748464426	-0.2839547582054423	-0.6679029392951906
147.564	0.1128533140174511	-0.2456651980889674	1.387206791275681	0.8183567129046732	0.9512132540709413	-1.164374547877855	0.3876443576661551	0.2170313206634902	0.1751891858871517	0.6315482467794113	0.6315482469234355	0.2973387534515692	-0.4831579286541426	0.308242165448867	-0.3297124478567107	-0.1195615829815474	1.4156921656972	1.415692165409074	-0.2704765709869337	-0.6647291405572118
147.568	0.1097059538514754	-0.2444521555550572	1.395050102677745	0.8172678667618529	0.9520259634584546	-1.164388704401984	0.3716590456189706	0.2069710088172421	0.1671761735837432	0.6199973173821481	0.6199973175611742	0.3039400891379028	-0.4730397023836153	0.3252441797859399	-0.3226384120679677	-0.1066960300822823	1.416189700760428	1.416189700381289	-0.25768565262056	-0.6613117693339277
147.572	0.1056144334894296	-0.2430436884531644	1.403561182566918	0.8160845635925138	0.9530204785221901	-1.164477327587238	0.3550247783933245	0.1957721674910252	0.1589624995722511	0.607268163751825	0.6072681639685091	0.3089561974508593	-0.4634322974792895	0.3420121771591488	-0.3136369749992634	-0.09350491867777376	1.414650124019019	1.414650123536898	-0.2455400876470344	-0.6576785721592611
147.576	0.1006401193758831	-0.241520281353206	1.412661906241756	0.8148220892531289	0.9541791473292887	-1.16463304419831	0.3378796615361836	0.1836093939584297	0.1506224151819925	0.5935395274218965	0.5935395276788866	0.3122685193977985	-0.4544922429252852	0.35851946454305	-0.3028574127548599	-0.08015560634454753	1.411136756819425	1.411136756230445	-0.2340027418427429	-0.6538623680365848
147.58	0.09485346345983148	-0.2399705838320537	1.42226170158153	0.813496129718708	0.9554833693654061	-1.164848603399181	0.3203665460599659	0.1706620094594108	0.1422315713132987	0.5789827546194279	0.5789827549197293	0.3137700057582306	-0.4463518685811667	0.3747471087557685	-0.2904714036718149	-0.06681575655148794	1.405714614211398	1.405714613519609	-0.2230446590804092	-0.6499040367900305
147.584	0.08833095769092994	-0.2384869161576898	1.432259141605876	0.8121224199891464	0.9569141960177824	-1.165117208742031	0.3026284739670456	0.1571077745823946	0.13386616137039	0.5637598533566247	0.5637598537038182	0.313367631728795	-0.4391171851339597	0.3906816807876404	-0.276667090566386	-0.05365018239867538	1.398447725374761	1.398447724590963	-0.2126473148571288	-0.6458545898943002
147.588	0.08115207762085985	-0.2371606702507614	1.442543857468653	0.8107164176366943	0.9584529087718199	-1.165432798065856	0.2848042540037151	0.1431170440604399	0.1256017812690091	0.5480220520951321	0.5480220524931046	0.3109849222730368	-0.4328660216710064	0.4063127156528381	-0.2616429876386978	-0.0408179345862282	1.389396712238702	1.389396711378639	-0.2028037292362672	-0.6417762128633201
147.592	0.07339633253873581	-0.2360778280767725	1.452998744105067	0.8092930048031722	0.9600815538886945	-1.165790258724835	0.267024350352866	0.1288475704910817	0.1175119972747491	0.5319088631012404	0.5319088635533953	0.3065643209368825	-0.4276466182927016	0.4216300540252092	-0.2456019367528271	-0.02846964390396289	1.378616715990099	1.378616715072306	-0.1935185352833489	-0.637742242474542
147.596	0.06514057719096208	-0.2353148361143576	1.463502425479765	0.8078662221564901	0.9617834099542708	-1.166185568449227	0.249407277794426	0.1144401779681837	0.109666613065425	0.5155476435046008	0.5155476440127348	0.3000692737652689	-0.4234768275754174	0.4366212747311932	-0.2287453618006285	-0.01674511516354116	1.366155772559851	1.366155771603353	-0.1848070879824759	-0.6338360511441316
147.6	0.05645677204356087	-0.2349350986271988	1.473931951988553	0.8064490379078335	0.9635433633283084	-1.166615856506442	0.2320567114830898	0.1000155339208079	0.1021296649460261	0.4990536256062499	0.4990536261693801	0.2914859569256961	-0.4203439679886684	0.4512694755209014	-0.2112681050003511	-0.005771147046551014	1.352053726350698	1.352053725372714	-0.176693651673252	-0.6301488131408154
147.604	0.04741034074669875	-0.2349862998514578	1.484165685988748	0.8050531535194522	0.965348173969375	-1.167079385819459	0.2150594604289287	0.08567217478111179	0.0949572308268999	0.4825303670499704	0.482530367663504	0.2808246236678512	-0.4182052709499238	0.4655516129122196	-0.1933540720758342	0.004340441428422173	1.336341729427349	1.336341728441293	-0.1692087405330117	-0.6267761978283637
147.608	0.03805918311314741	-0.2354986411446993	1.494086321340252	0.8036888435388119	0.967186628803319	-1.16757546317798	0.19848432887977	0.07148580279153499	0.08819515155790092	0.4660705500301869	0.4660705506858198	0.2681205405467813	-0.4169888726878396	0.4794374882712984	-0.1751727731612251	0.01349460151130661	1.319042320327964	1.319042319342118	-0.1623858141575463	-0.6238141520493302
147.612	0.02845332668269971	-0.2364839592316411	1.503583989993918	0.8023648224958765	0.9690495931118288	-1.168104289449244	0.182381775069511	0.0575097517211234	0.08187674419394413	0.4497570403353308	0.4497570410217584	0.253434432767362	-0.4165953995611453	0.4928893557031531	-0.1568767220192052	0.02161471118196938	1.300170039322392	1.300170038339497	-0.1562576408978224	-0.621354028357062
